<svg width="336" height="315" viewBox="0 0 336 315" fill="none" xmlns="http://www.w3.org/2000/svg">
<path d="M316.037 190.333C319.999 169.609 307.834 148.921 293.56 134.901C277.761 119.312 257.622 108.799 236.01 103.723C192.307 93.232 147.327 104.418 106.536 120.513C81.1391 130.521 56.8585 143.007 33.6032 157.426C31.4437 158.77 31.3788 162.568 32.7906 164.296C34.5667 166.523 37.5008 166.452 39.6604 165.108C59.3695 152.967 79.8988 142.372 101.248 133.323C120.779 125.14 140.766 118.003 161.483 113.549C201.757 105.256 246.067 108.491 279.163 135.209C294.732 147.751 310.217 168.162 306.074 189.478C305.667 192.071 308.035 194.48 310.469 194.773C313.608 195.089 315.63 192.926 316.037 190.333Z" fill="white"/>
<path d="M48.6163 83.786C42.6795 108.629 36.7428 133.472 30.806 158.315C29.5597 163.434 27.0181 170.033 31.7756 174.145C34.0975 176.281 37.2367 176.597 40.4436 176.48C43.6506 176.363 46.6982 176.133 50.0188 175.857C62.8009 175.118 75.5373 174.106 88.3195 173.366C102.739 172.352 117.045 171.498 131.464 170.484C134.08 170.186 135.851 167.364 135.44 164.908C134.982 162.179 132.479 160.634 129.864 160.932C106.415 162.478 82.9659 164.023 59.7899 165.522C53.8082 165.823 47.8722 166.397 41.8905 166.698C41.1853 166.676 39.4565 166.405 38.6835 166.815C38.0241 167.066 38.6378 166.542 38.7293 167.088C38.7765 169.044 39.2072 167.429 39.2072 167.429C39.3208 167.269 39.7278 164.676 39.8414 164.517C40.2721 162.901 40.5893 161.445 41.02 159.83C43.7619 148.569 46.3446 137.194 49.2002 125.773C52.3729 112.896 55.3862 99.9062 58.5589 87.0295C59.2389 84.3905 58.2357 81.7529 55.5509 80.8001C52.639 80.1658 49.1827 81.3062 48.6163 83.786Z" fill="white"/>
</svg>
